<svg height="512" viewBox="0 0 24 24" width="512" xmlns="http://www.w3.org/2000/svg" fill="#828fa3"><g id="_46_Open_File_Document_Folder" data-name="46 Open File, Document, Folder"><path d="m22.33 9.73a2 2 0 0 0 -1.55-.73h-12.14a3 3 0 0 0 -2.94 2.41l-1.52 7.59h-.18a1 1 0 0 1 -1-1v-12a1 1 0 0 1 1-1h3.7l2.75 1.83a1 1 0 0 0 .55.17h6a1 1 0 0 1 1 1h2a3 3 0 0 0 -3-3h-5.7l-2.75-1.83a1 1 0 0 0 -.55-.17h-4a3 3 0 0 0 -3 3v12a3 3 0 0 0 3 3h14.36a3 3 0 0 0 2.94-2.41l1.44-7.2a2 2 0 0 0 -.41-1.66zm-3 8.47a1 1 0 0 1 -1 .8h-12.11l1.44-7.2a1 1 0 0 1 1-.8h12.12z"/></g></svg>